<svg width="566" height="625" viewBox="0 0 566 625" fill="none" xmlns="http://www.w3.org/2000/svg">
<g clip-path="url(#clip0)">
<path d="M259.809 379.83V369.629L252.477 373.295L239.567 365.804C235.422 363.413 228.569 363.413 224.265 365.804L94.3607 440.878L87.0287 437.211V447.413C86.8693 449.166 87.8256 450.919 90.2165 452.194L107.431 462.077C111.575 464.467 118.429 464.467 122.732 462.077L256.94 384.612C259.012 383.178 259.969 381.424 259.809 379.83Z" fill="#55C3FE"/>
<path d="M94.3607 440.718L87.0287 437.052V447.253C86.8693 449.007 87.8256 450.76 90.2165 452.035L107.431 461.917C109.503 463.033 112.213 463.671 114.763 463.671V428.923L94.3607 440.718Z" fill="#179ECC"/>
<path d="M107.271 451.079C111.415 453.469 118.269 453.469 122.572 451.079L256.78 373.614C260.924 371.223 260.924 367.239 256.78 364.848L239.566 354.965C235.422 352.575 228.568 352.575 224.264 354.965L90.0564 432.43C85.9122 434.821 85.9122 438.805 90.0564 441.196L107.271 451.079Z" fill="#97DFFF"/>
<path d="M147.916 424.46L138.512 419.041V371.223L198.921 336.476L147.916 424.46Z" fill="#179ECC"/>
<path d="M208.325 389.553L147.916 424.46V376.483L208.325 341.736V389.553Z" fill="#35AFE5"/>
<path d="M307.627 88.9406L298.86 83.9995C298.701 83.8401 298.541 83.6807 298.222 83.6807C297.426 83.3619 296.31 83.5213 295.035 84.1589L42.7175 229.843C40.0078 231.437 37.7764 235.262 37.7764 238.291V432.27C37.7764 433.864 38.2545 434.98 39.2109 435.458C39.3703 435.458 39.5297 435.618 39.6891 435.618L48.4556 440.559L50.2089 431.155L47.6587 432.27L295.353 289.296C298.063 287.702 300.295 283.877 300.295 280.848V94.2005L307.627 88.9406Z" fill="#35AFE5"/>
<path d="M298.86 83.9995C298.701 83.8401 298.542 83.6807 298.223 83.6807C297.426 83.3619 296.31 83.5213 295.035 84.1589L42.7179 229.843C41.6022 230.48 40.4864 231.596 39.6895 232.871L208.326 339.504L295.194 289.455C297.904 287.861 300.136 284.036 300.136 281.008V94.2005L307.786 88.9406L298.86 83.9995Z" fill="#97DFFF"/>
<path d="M309.061 286.108C309.061 289.296 306.829 292.962 304.12 294.556L51.6433 440.399C48.9336 441.993 46.7021 440.718 46.7021 437.53V243.551C46.7021 240.363 48.9336 236.697 51.6433 235.103L304.279 89.2594C306.989 87.6655 309.22 88.9407 309.22 92.1285V286.108H309.061Z" fill="#55C3FE"/>
<path d="M304.439 271.922L51.6436 417.766V243.232L304.439 97.2289V271.922Z" fill="#E6F7FF"/>
<path d="M301.889 98.6635V269.85L51.6436 414.418V417.766L304.439 271.922V97.2289L301.889 98.6635Z" fill="white"/>
<path d="M280.69 140.105L179.954 198.283V192.545L280.69 134.367V140.105Z" fill="#CBE9F4"/>
<path d="M280.69 150.466L123.37 241.319V235.581L280.69 144.728V150.466Z" fill="#CBE9F4"/>
<path d="M280.69 160.826L123.37 251.68V245.942L280.69 155.088V160.826Z" fill="#CBE9F4"/>
<path d="M280.69 171.187L123.37 262.04V256.143L280.69 165.289V171.187Z" fill="#CBE9F4"/>
<path d="M280.69 181.388L123.37 272.241V266.503L280.69 175.65V181.388Z" fill="#CBE9F4"/>
<path d="M280.69 191.748L123.37 282.602V276.864L280.69 186.01V191.748Z" fill="#CBE9F4"/>
<path d="M280.69 212.31L179.954 270.488V264.75L280.69 206.572V212.31Z" fill="#CBE9F4"/>
<path d="M280.69 222.67L123.37 313.524V307.786L280.69 216.932V222.67Z" fill="#CBE9F4"/>
<path d="M280.69 233.031L123.37 323.884V318.146L280.69 227.293V233.031Z" fill="#CBE9F4"/>
<path d="M280.69 243.232L123.37 334.245V328.347L280.69 237.494V243.232Z" fill="#CBE9F4"/>
<path d="M280.69 253.592L123.37 344.446V338.708L280.69 247.854V253.592Z" fill="#CBE9F4"/>
<path d="M198.762 311.292L123.37 354.806V349.068L198.762 305.395V311.292Z" fill="#CBE9F4"/>
<path d="M524.559 436.096L389.235 357.834L362.936 173.418L389.235 158.435L524.559 236.697V436.096Z" fill="#144682"/>
<path d="M517.864 432.589L495.071 444.225L363.573 180.113L388.598 165.927L517.864 240.522V432.589Z" fill="white"/>
<path d="M498.419 451.079L362.936 372.817V173.418L498.419 251.52V451.079Z" fill="#2D5CA0"/>
<path d="M494.115 453.629L358.632 375.527L332.492 191.111L358.632 176.128L494.115 254.23V453.629Z" fill="#1890C6"/>
<path d="M487.262 450.282L464.628 461.758L333.13 197.805L357.995 183.619L487.262 258.215V450.282Z" fill="white"/>
<path d="M467.816 468.612L332.492 390.51V191.111L467.816 269.213V468.612Z" fill="#55C3FE"/>
<path d="M332.492 390.51V191.111L467.816 269.213L332.492 390.51Z" fill="#C4DDE8"/>
<path d="M367.08 199.558L355.604 193.023V168.636L361.342 176.765L367.08 172.94V199.558Z" fill="#EA4266"/>
<path d="M246.421 562.812L138.672 500.49L91.8105 475.147L259.809 381.743L451.239 464.786L281.805 562.812H246.421Z" fill="#D6EAF2"/>
<path d="M280.371 561.059L154.93 488.536V460.483L323.247 391.466L448.529 463.83L280.371 561.059Z" fill="#144682"/>
<path d="M323.247 382.381L161.146 457.614V483.116L280.371 551.974L448.529 454.904L323.247 382.381Z" fill="#E5E5E5"/>
<path d="M323.247 375.846L296.31 388.438V468.931H161.146V476.581L280.371 545.439L448.529 448.369L323.247 375.846Z" fill="#F4F4F4"/>
<path d="M323.247 369.948L296.31 382.381V468.931H161.146V470.684L280.371 539.382L448.529 442.312L323.247 369.948Z" fill="white"/>
<path d="M280.371 532.847L154.93 460.483L323.247 363.413L448.529 435.777L280.371 532.847Z" fill="#2D5CA0"/>
<path d="M280.69 522.805L161.624 454.107V427.329L321.494 361.819L440.56 430.517L280.69 522.805Z" fill="#1890C6"/>
<path d="M321.494 353.212L167.521 424.62V448.847L280.69 514.357L440.559 422.069L321.494 353.212Z" fill="#E5E5E5"/>
<path d="M321.494 346.996L295.991 358.791V435.299H167.521V442.631L280.69 508.141L440.559 415.853L321.494 346.996Z" fill="#F4F4F4"/>
<path d="M321.494 341.258L295.991 353.212V435.299H167.521V437.052L280.69 502.403L440.559 410.115L321.494 341.258Z" fill="white"/>
<path d="M280.69 496.186L161.624 427.329L321.494 335.041L440.56 403.899L280.69 496.186Z" fill="#55C3FE"/>
<path d="M281.646 489.333L167.841 423.504V398.001L320.538 335.36L434.503 401.03L281.646 489.333Z" fill="#EA4266"/>
<path d="M320.538 327.072L173.42 395.451V418.563L281.647 481.044L434.504 392.901L320.538 327.072Z" fill="#E5E5E5"/>
<path d="M320.538 321.174L296.152 332.491V405.652H173.42V412.665L281.647 475.147L434.504 387.003L320.538 321.174Z" fill="#F4F4F4"/>
<path d="M320.538 315.755L296.152 327.072V405.652H173.42V407.246L281.647 469.727L434.504 381.424L320.538 315.755Z" fill="white"/>
<path d="M281.646 463.83L167.841 398.001L320.538 309.858L434.503 375.527L281.646 463.83Z" fill="#FE7386"/>
<path d="M167.841 398.001L258.216 450.282L333.608 406.608L243.233 354.487L167.841 398.001Z" fill="#EF92A9"/>
<path d="M235.901 358.631L320.538 309.858L382.542 345.561L235.901 358.631Z" fill="#EF92A9"/>
<path d="M464.627 189.357C460.642 183.619 465.424 143.771 459.686 140.105C459.686 139.149 459.686 138.193 459.526 137.236C460.802 136.917 432.589 103.605 426.851 108.865C421.113 114.124 425.576 122.891 425.576 122.891C425.576 122.891 425.895 124.326 423.663 125.282C424.938 125.76 426.214 125.919 427.329 125.76C427.329 126.079 427.489 126.398 427.489 126.876C427.808 128.789 428.126 131.02 428.764 133.251C429.401 135.642 429.88 137.874 430.358 139.946C430.039 140.105 429.88 140.424 429.561 140.743C429.401 140.743 429.401 140.902 429.401 140.902C429.242 141.062 429.083 141.221 428.923 141.38C428.605 141.699 428.286 142.177 427.967 142.496C417.766 155.566 421.113 171.027 414.897 176.128C412.825 177.881 408.043 181.707 402.145 184.097L394.016 186.01L382.381 164.014L382.54 170.868L382.381 170.549L383.018 188.242C380.149 188.56 377.759 197.805 382.7 200.674C383.018 200.834 393.379 201.631 393.698 201.631L395.292 213.425V224.742C388.916 230.48 383.337 237.015 381.903 243.072C377.759 259.809 379.352 298.381 379.352 298.381C379.352 298.381 379.352 298.541 379.512 298.7C377.44 300.294 370.267 305.873 368.514 308.423C368.354 308.742 368.195 308.901 368.195 309.22C367.876 310.176 368.354 311.133 369.311 311.77C369.47 311.77 369.63 311.93 369.63 311.93C369.63 311.93 369.789 311.93 369.789 312.089C369.948 312.089 370.108 312.248 370.108 312.248C370.267 312.248 370.267 312.248 370.427 312.408C370.586 312.408 370.745 312.408 370.745 312.408C370.905 312.408 371.064 312.408 371.223 312.408C371.383 312.408 371.542 312.408 371.542 312.408C371.702 312.408 371.861 312.408 372.02 312.408C372.18 312.408 372.339 312.408 372.499 312.408C372.658 312.408 372.817 312.408 373.136 312.408C373.296 312.408 373.455 312.408 373.614 312.408C373.774 312.408 374.093 312.248 374.252 312.248C374.411 312.248 374.571 312.248 374.73 312.089C374.889 312.089 375.208 311.93 375.527 311.93C375.686 311.93 375.846 311.77 376.005 311.77C376.324 311.611 376.483 311.611 376.802 311.451C376.962 311.451 377.121 311.292 377.28 311.292C377.759 311.133 378.077 310.814 378.555 310.654C386.206 306.67 387.8 305.554 389.235 304.757C389.554 304.598 389.713 304.438 389.872 304.279C389.872 304.279 389.872 304.279 390.032 304.119C390.191 303.96 390.35 303.801 390.35 303.482C390.35 303.322 390.51 303.004 390.51 302.844V302.685C390.51 302.366 390.51 302.047 390.51 301.729C390.669 301.569 390.829 301.569 390.829 301.569L397.204 244.985C397.204 244.985 407.405 261.881 415.056 258.852C410.274 264.75 411.39 257.258 410.434 263.475C408.043 280.529 408.043 317.508 408.043 317.508C408.043 317.508 408.202 317.668 408.362 317.827C405.971 319.74 399.436 324.84 397.842 327.231C397.683 327.55 397.523 327.709 397.523 328.028C397.204 328.985 397.523 329.941 398.639 330.578C398.798 330.578 398.958 330.738 398.958 330.738C398.958 330.738 399.117 330.738 399.117 330.897C399.276 330.897 399.436 331.057 399.436 331.057C399.595 331.057 399.595 331.057 399.755 331.216C399.914 331.216 400.073 331.216 400.073 331.216C400.233 331.216 400.392 331.216 400.552 331.216C400.711 331.216 400.87 331.216 400.87 331.216C401.03 331.216 401.189 331.216 401.349 331.216C401.508 331.216 401.667 331.216 401.827 331.216C401.986 331.216 402.145 331.216 402.464 331.216C402.624 331.216 402.783 331.216 402.942 331.216C403.102 331.216 403.421 331.057 403.58 331.057C403.739 331.057 403.899 331.057 404.058 330.897C404.218 330.897 404.536 330.738 404.855 330.738C405.015 330.738 405.174 330.578 405.333 330.578C405.652 330.419 405.811 330.419 406.13 330.26C406.29 330.26 406.449 330.1 406.608 330.1C407.087 329.941 407.565 329.622 407.884 329.463C415.534 325.478 417.128 324.362 418.563 323.565C418.882 323.406 419.041 323.246 419.2 323.087C419.2 323.087 419.2 322.928 419.36 322.928C419.519 322.768 419.679 322.609 419.679 322.29C419.679 322.131 419.838 321.812 419.838 321.652V321.493C419.838 320.856 419.679 320.218 419.679 319.262C419.679 319.102 419.519 318.783 419.36 318.624C419.679 318.305 427.011 245.782 427.011 245.782C427.011 245.782 457.136 232.234 461.28 230.002C480.407 219.164 464.627 189.357 464.627 189.357Z" fill="#E2E2E2"/>
<path d="M420.954 122.572C420.954 122.572 421.113 120.978 425.417 130.701C429.72 140.424 419.36 171.346 416.81 174.693C414.259 178.041 383.178 187.604 376.324 177.084C380.628 174.853 376.484 171.665 377.281 166.724C390.032 171.187 402.624 160.986 406.609 157.798C413.144 152.378 409.318 135.961 420.954 122.572Z" fill="#C7EBF9"/>
<path d="M371.383 280.051C371.383 280.051 361.978 287.224 359.906 290.093C357.834 293.121 362.297 296.15 369.948 292.165C377.599 288.18 379.193 287.065 380.627 286.268C382.062 285.471 381.743 284.196 381.584 282.123C381.105 279.892 371.383 280.051 371.383 280.051Z" fill="white"/>
<path d="M380.468 284.992C379.034 285.789 377.44 286.905 369.789 290.89C364.051 293.918 360.226 292.803 359.429 290.89C358.632 293.6 362.776 295.831 369.789 292.165C377.44 288.18 379.034 287.065 380.468 286.268C381.584 285.63 381.743 284.833 381.584 283.399C381.425 284.036 381.106 284.514 380.468 284.992Z" fill="#4C4C4C"/>
<path d="M452.513 188.879C452.513 188.879 452.195 210.238 433.227 215.019C414.259 219.642 394.335 229.365 394.335 229.365L381.903 283.239C381.903 283.239 379.193 284.514 376.643 284.036C372.339 283.239 370.746 280.051 370.746 280.051C370.746 280.051 369.311 241.478 373.296 224.742C377.44 208.006 411.39 188.401 411.39 188.401L452.513 188.879Z" fill="#112F5B"/>
<path d="M400.233 298.7C400.233 298.7 390.829 305.873 388.757 308.742C386.685 311.77 391.148 314.799 398.799 310.814C406.449 306.829 408.043 305.713 409.478 304.916C410.912 304.119 410.753 302.844 410.434 300.772C410.115 298.541 400.233 298.7 400.233 298.7Z" fill="white"/>
<path d="M409.477 303.641C408.043 304.438 406.449 305.554 398.798 309.539C393.06 312.567 389.234 311.451 388.437 309.539C387.64 312.248 391.785 314.48 398.798 310.814C406.449 306.829 408.043 305.713 409.477 304.916C410.593 304.279 410.752 303.482 410.593 302.047C410.433 302.844 410.115 303.322 409.477 303.641Z" fill="#4C4C4C"/>
<path d="M471.163 201.631C471.163 201.631 472.916 222.989 454.586 229.524C436.256 236.059 417.288 247.695 417.288 247.695L410.434 299.656C410.434 299.656 408.522 301.729 404.856 301.729C401.03 301.729 398.958 299.178 398.958 299.178C398.958 299.178 394.655 259.809 397.045 242.754C399.436 225.699 425.258 205.775 425.258 205.775L471.163 201.631Z" fill="#164072"/>
<path d="M408.68 190.314C408.68 190.314 406.608 126.398 426.213 118.906C445.659 111.415 463.67 129.267 471.321 146.481C478.972 163.695 476.9 193.661 471.321 204.818C444.384 223.148 407.883 199.08 408.68 190.314Z" fill="#E6F7FF"/>
<path d="M471.162 146.322C463.511 129.107 445.659 111.255 426.054 118.747C425.417 119.066 424.779 119.384 424.142 119.703C438.487 121.457 450.76 135.324 456.658 148.872C464.308 166.086 462.236 196.052 456.658 207.209C453.948 209.122 451.238 210.397 448.369 211.513C456.02 211.513 463.83 209.6 471.003 204.818C476.9 193.661 478.813 163.536 471.162 146.322Z" fill="white"/>
<path d="M420.635 90.3751C420.635 90.3751 415.694 98.1853 420.157 115.081C423.663 128.789 424.301 136.439 429.88 136.917C435.618 137.555 452.673 133.251 450.919 119.066C452.673 118.747 456.179 112.212 453.31 106.952C450.601 101.692 448.688 107.43 448.688 107.43C448.688 107.43 448.847 96.1132 440.878 91.969C432.908 87.8248 420.635 90.3751 420.635 90.3751Z" fill="url(#paint0_linear)"/>
<path d="M439.443 103.923C439.443 103.286 433.386 111.893 423.504 109.183C426.851 108.227 427.648 105.836 427.648 105.836C427.648 105.836 424.301 110.14 418.722 108.705C421.113 107.749 422.229 106.633 422.229 106.633C422.229 106.633 418.563 108.546 414.897 107.111C417.128 106.155 416.81 104.72 416.81 104.72C416.81 104.72 414.897 106.633 410.912 103.286C412.506 103.126 412.347 95.7944 418.085 90.6939C423.823 85.434 428.445 84.3182 435.937 85.5934C434.024 83.6806 432.111 82.5649 429.402 83.0431C432.43 81.2898 438.806 84.3182 440.718 87.1873C446.616 84.9558 457.773 88.7812 454.107 110.299C454.107 109.821 453.47 106.314 451.398 105.517C449.326 104.88 447.572 109.024 448.05 109.98C448.529 111.096 448.688 117.153 448.688 117.153L445.978 118.587C445.978 118.587 446.775 113.328 444.863 111.574C443.428 110.14 439.921 112.052 439.443 103.923Z" fill="#112F5B"/>
<path d="M374.252 152.219L385.728 167.68L423.185 158.913L420.954 207.209L387.003 206.89L375.846 193.183L374.252 152.219Z" fill="white"/>
<path d="M374.252 145.684L385.728 167.68L387.003 206.89L375.846 193.183L374.252 145.684Z" fill="#E6F7FF"/>
<path d="M430.677 185.054C430.677 185.054 429.561 186.807 427.171 185.054C424.78 183.3 423.823 180.272 422.389 179.156C422.229 182.982 422.389 185.691 417.607 185.691C412.825 185.532 409.797 184.894 407.087 185.213C404.378 185.373 407.565 197.327 421.592 197.646C429.243 197.168 432.59 192.864 432.59 192.864L430.677 185.054Z" fill="url(#paint1_linear)"/>
<path d="M374.889 169.912C374.889 169.912 377.44 175.171 379.034 175.809C380.628 176.447 379.352 185.213 374.571 182.344C369.63 179.475 371.861 170.071 374.889 169.912Z" fill="url(#paint2_linear)"/>
<path d="M455.542 144.409C455.542 144.409 456.339 131.179 465.584 136.439C474.828 141.699 484.711 172.781 484.711 177.084C484.711 181.228 441.834 202.109 430.039 197.646C432.271 193.342 432.271 187.763 429.88 183.3C442.791 179.316 459.367 174.375 462.236 170.071C465.105 165.767 453.948 162.101 455.542 144.409Z" fill="#C7EBF9"/>
<path d="M193.183 610.47L0 498.896V491.564L256.142 566.956V574.129L193.183 610.47Z" fill="#55C3FE"/>
<path d="M193.183 610.47L0 498.896V491.564L193.342 602.501V609.833L193.183 610.47Z" fill="#35AFE5"/>
<path d="M193.183 603.138L0 491.564L62.8003 455.382L256.142 566.956L193.183 603.138Z" fill="#97DFFF"/>
<path d="M68.5384 475.784L55.7871 468.452V466.858L76.6674 469.409V471.003L68.5384 475.784Z" fill="#32A5C4"/>
<path d="M68.5384 474.19L55.7871 466.858L63.9161 462.077L76.6674 469.409L68.5384 474.19Z" fill="#ADF8FF"/>
<path d="M82.0873 483.594L69.3359 476.262V474.669L90.3756 477.378V478.813L82.0873 483.594Z" fill="#32A5C4"/>
<path d="M82.0873 482.001L69.3359 474.669L77.6243 470.046L90.3756 477.378L82.0873 482.001Z" fill="#ADF8FF"/>
<path d="M95.7953 491.564L83.0439 484.232V482.638L103.924 485.188V486.782L95.7953 491.564Z" fill="#32A5C4"/>
<path d="M95.7953 489.97L83.0439 482.638L91.1729 477.856L103.924 485.188L95.7953 489.97Z" fill="#ADF8FF"/>
<path d="M109.343 499.374L96.5918 492.042V490.448L117.632 493.158V494.593L109.343 499.374Z" fill="#32A5C4"/>
<path d="M109.344 497.78L96.5928 490.448L104.881 485.667L117.632 493.158L109.344 497.78Z" fill="#ADF8FF"/>
<path d="M123.051 507.344L110.3 499.852V498.418L131.18 500.968V502.562L123.051 507.344Z" fill="#32A5C4"/>
<path d="M123.052 505.75L110.301 498.418L118.589 493.636L131.181 500.968L123.052 505.75Z" fill="#ADF8FF"/>
<path d="M136.599 515.154L124.007 507.822V506.228L144.887 508.938V510.372L136.599 515.154Z" fill="#32A5C4"/>
<path d="M136.599 513.56L124.007 506.228L132.136 501.446L144.887 508.938L136.599 513.56Z" fill="#ADF8FF"/>
<path d="M150.306 523.124L137.555 515.632V514.198L158.594 516.748V518.342L150.306 523.124Z" fill="#32A5C4"/>
<path d="M150.306 521.53L137.555 514.198L145.843 509.416L158.594 516.748L150.306 521.53Z" fill="#ADF8FF"/>
<path d="M164.014 530.934L151.263 523.602V522.008L172.143 524.558V526.152L164.014 530.934Z" fill="#32A5C4"/>
<path d="M164.014 529.34L151.263 522.008L159.392 517.226L172.143 524.558L164.014 529.34Z" fill="#ADF8FF"/>
<path d="M177.562 538.744L164.811 531.412V529.978L185.85 532.528V534.122L177.562 538.744Z" fill="#32A5C4"/>
<path d="M177.562 537.31L164.811 529.978L173.099 525.196L185.85 532.528L177.562 537.31Z" fill="#ADF8FF"/>
<path d="M191.269 546.714L178.518 539.382V537.788L199.398 540.338V541.932L191.269 546.714Z" fill="#32A5C4"/>
<path d="M191.269 545.12L178.518 537.788L186.647 533.006L199.398 540.338L191.269 545.12Z" fill="#ADF8FF"/>
<path d="M204.818 554.524L192.066 547.192V545.598L213.106 548.308V549.901L204.818 554.524Z" fill="#32A5C4"/>
<path d="M204.818 553.089L192.066 545.598L200.355 540.976L213.106 548.308L204.818 553.089Z" fill="#ADF8FF"/>
<path d="M218.527 562.493L205.775 555.161V553.567L226.656 556.118V557.712L218.527 562.493Z" fill="#32A5C4"/>
<path d="M218.528 560.899L205.776 553.567L213.905 548.786L226.657 556.118L218.528 560.899Z" fill="#ADF8FF"/>
<path d="M232.075 570.304L219.323 562.972V561.378L240.363 564.087V565.681L232.075 570.304Z" fill="#32A5C4"/>
<path d="M232.075 568.869L219.323 561.378L227.612 556.755L240.363 564.087L232.075 568.869Z" fill="#ADF8FF"/>
<path d="M65.3502 486.304L45.1074 474.509V472.915L73.4791 480.088V481.522L65.3502 486.304Z" fill="#32A5C4"/>
<path d="M65.3511 484.71L45.1084 472.915L53.3968 468.134L73.4801 480.088L65.3511 484.71Z" fill="#ADF8FF"/>
<path d="M78.8988 494.274L66.1475 486.782V485.348L87.1872 487.898V489.492L78.8988 494.274Z" fill="#32A5C4"/>
<path d="M78.8988 492.68L66.1475 485.348L74.4358 480.566L87.1872 487.898L78.8988 492.68Z" fill="#ADF8FF"/>
<path d="M92.6058 502.084L79.8545 494.752V493.158L100.735 495.708V497.302L92.6058 502.084Z" fill="#32A5C4"/>
<path d="M92.6058 500.49L79.8545 493.158L87.9835 488.376L100.735 495.708L92.6058 500.49Z" fill="#ADF8FF"/>
<path d="M106.154 509.894L93.4023 502.562V500.968L114.442 503.678V505.272L106.154 509.894Z" fill="#32A5C4"/>
<path d="M106.154 508.46L93.4023 500.968L101.691 496.346L114.442 503.678L106.154 508.46Z" fill="#ADF8FF"/>
<path d="M119.862 517.864L107.11 510.532V508.938L127.991 511.488V513.082L119.862 517.864Z" fill="#32A5C4"/>
<path d="M119.863 516.27L107.111 508.938L115.24 504.156L127.992 511.488L119.863 516.27Z" fill="#ADF8FF"/>
<path d="M133.411 525.674L120.659 518.342V516.748L141.699 519.458V521.052L133.411 525.674Z" fill="#32A5C4"/>
<path d="M133.411 524.239L120.659 516.748L128.948 512.126L141.699 519.458L133.411 524.239Z" fill="#ADF8FF"/>
<path d="M147.119 533.643L134.367 526.312V524.718L155.247 527.268V528.862L147.119 533.643Z" fill="#32A5C4"/>
<path d="M147.119 532.05L134.367 524.718L142.656 519.936L155.247 527.268L147.119 532.05Z" fill="#ADF8FF"/>
<path d="M160.667 541.454L148.075 534.122V532.528L168.956 535.237V536.831L160.667 541.454Z" fill="#32A5C4"/>
<path d="M160.667 540.019L148.075 532.528L156.204 527.905L168.956 535.237L160.667 540.019Z" fill="#ADF8FF"/>
<path d="M174.374 549.423L161.623 542.091V540.497L182.663 543.048V544.642L174.374 549.423Z" fill="#32A5C4"/>
<path d="M174.374 547.829L161.623 540.497L169.911 535.716L182.663 543.048L174.374 547.829Z" fill="#ADF8FF"/>
<path d="M188.082 557.233L175.331 549.901V548.308L196.211 551.017V552.452L188.082 557.233Z" fill="#32A5C4"/>
<path d="M188.082 555.64L175.331 548.308L183.46 543.685L196.211 551.017L188.082 555.64Z" fill="#ADF8FF"/>
<path d="M201.63 565.203L188.879 557.871V556.277L209.919 558.827V560.421L201.63 565.203Z" fill="#32A5C4"/>
<path d="M201.631 563.609L188.88 556.277L197.168 551.495L209.92 558.827L201.631 563.609Z" fill="#ADF8FF"/>
<path d="M221.395 576.679L202.587 565.681V564.087L229.684 570.304V571.898L221.395 576.679Z" fill="#32A5C4"/>
<path d="M221.396 575.085L202.588 564.087L210.717 559.306L229.684 570.304L221.396 575.085Z" fill="#ADF8FF"/>
<path d="M49.5702 489.651L34.2686 480.725V479.132L56.5834 482.638V484.232L49.5702 489.651Z" fill="#32A5C4"/>
<path d="M50.0483 488.217L34.2686 479.132L42.5569 474.509L58.1773 483.594L50.0483 488.217Z" fill="#ADF8FF"/>
<path d="M62.0023 496.824L49.251 489.492V487.898L70.2907 490.608V492.042L62.0023 496.824Z" fill="#32A5C4"/>
<path d="M62.0033 495.23L49.252 487.898L57.5403 483.116L70.2917 490.608L62.0033 495.23Z" fill="#ADF8FF"/>
<path d="M75.7103 504.794L62.959 497.302V495.868L83.8393 498.418V500.012L75.7103 504.794Z" fill="#32A5C4"/>
<path d="M75.7103 503.2L62.959 495.868L71.088 491.086L83.8393 498.418L75.7103 503.2Z" fill="#ADF8FF"/>
<path d="M89.2582 512.604L76.5068 505.272V503.678L97.5465 506.228V507.822L89.2582 512.604Z" fill="#32A5C4"/>
<path d="M89.2582 511.01L76.5068 503.678L84.7952 498.896L97.5465 506.228L89.2582 511.01Z" fill="#ADF8FF"/>
<path d="M102.966 520.414L90.2148 513.082V511.647L111.255 514.198V515.792L102.966 520.414Z" fill="#32A5C4"/>
<path d="M102.966 518.979L90.2148 511.647L98.5032 506.866L111.255 514.198L102.966 518.979Z" fill="#ADF8FF"/>
<path d="M116.674 528.384L103.923 521.052V519.458L124.803 522.008V523.602L116.674 528.384Z" fill="#32A5C4"/>
<path d="M116.675 526.79L103.924 519.458L112.053 514.676L124.804 522.008L116.675 526.79Z" fill="#ADF8FF"/>
<path d="M130.223 536.194L117.472 528.862V527.268L138.511 529.978V531.571L130.223 536.194Z" fill="#32A5C4"/>
<path d="M130.223 534.759L117.472 527.268L125.76 522.645L138.511 529.977L130.223 534.759Z" fill="#ADF8FF"/>
<path d="M143.93 544.163L131.179 536.831V535.237L152.059 537.788V539.382L143.93 544.163Z" fill="#32A5C4"/>
<path d="M143.93 542.569L131.179 535.237L139.308 530.456L152.059 537.788L143.93 542.569Z" fill="#ADF8FF"/>
<path d="M157.478 551.974L144.727 544.642V543.048L165.766 545.757V547.351L157.478 551.974Z" fill="#32A5C4"/>
<path d="M157.478 550.539L144.727 543.048L153.015 538.425L165.766 545.757L157.478 550.539Z" fill="#ADF8FF"/>
<path d="M171.186 559.943L158.435 552.611V551.017L179.315 553.567V555.161L171.186 559.943Z" fill="#32A5C4"/>
<path d="M171.186 558.349L158.435 551.017L166.564 546.235L179.315 553.567L171.186 558.349Z" fill="#ADF8FF"/>
<path d="M184.735 567.753L171.983 560.421V558.827L193.023 561.537V562.972L184.735 567.753Z" fill="#32A5C4"/>
<path d="M184.735 566.159L171.983 558.827L180.272 554.205L193.023 561.537L184.735 566.159Z" fill="#ADF8FF"/>
<path d="M198.442 575.723L185.69 568.391V566.797L206.571 569.347V570.941L198.442 575.723Z" fill="#32A5C4"/>
<path d="M198.442 574.129L185.69 566.797L193.819 562.015L206.571 569.347L198.442 574.129Z" fill="#ADF8FF"/>
<path d="M210.715 582.736L199.239 576.201V574.607L218.844 576.52V577.954L210.715 582.736Z" fill="#32A5C4"/>
<path d="M210.715 581.142L199.239 574.607L207.528 569.825L218.844 576.52L210.715 581.142Z" fill="#ADF8FF"/>
<path d="M45.2664 499.534L23.4297 486.942V485.348L53.3953 493.158V494.752L45.2664 499.534Z" fill="#32A5C4"/>
<path d="M45.2673 497.94L23.4307 485.348L31.719 480.725L53.3963 493.158L45.2673 497.94Z" fill="#ADF8FF"/>
<path d="M58.8148 507.344L46.0635 500.012V498.418L67.1032 501.128V502.721L58.8148 507.344Z" fill="#32A5C4"/>
<path d="M58.8148 505.909L46.0635 498.418L54.3518 493.796L67.1032 501.128L58.8148 505.909Z" fill="#ADF8FF"/>
<path d="M72.5218 515.313L59.7705 507.981V506.388L80.6508 508.938V510.532L72.5218 515.313Z" fill="#32A5C4"/>
<path d="M72.5218 513.72L59.7705 506.388L67.8995 501.606L80.6508 508.938L72.5218 513.72Z" fill="#ADF8FF"/>
<path d="M86.0707 523.124L73.3193 515.792V514.198L94.359 516.907V518.501L86.0707 523.124Z" fill="#32A5C4"/>
<path d="M86.0707 521.53L73.3193 514.198L81.6077 509.575L94.359 516.907L86.0707 521.53Z" fill="#ADF8FF"/>
<path d="M99.7777 531.093L87.0264 523.761V522.167L107.907 524.718V526.311L99.7777 531.093Z" fill="#32A5C4"/>
<path d="M99.7777 529.499L87.0264 522.167L95.1553 517.386L107.907 524.718L99.7777 529.499Z" fill="#ADF8FF"/>
<path d="M113.327 538.903L100.575 531.571V529.977L121.615 532.687V534.122L113.327 538.903Z" fill="#32A5C4"/>
<path d="M113.327 537.309L100.575 529.977L108.864 525.196L121.615 532.687L113.327 537.309Z" fill="#ADF8FF"/>
<path d="M127.034 546.873L114.282 539.541V537.947L135.163 540.497V542.091L127.034 546.873Z" fill="#32A5C4"/>
<path d="M127.034 545.279L114.282 537.947L122.571 533.165L135.163 540.497L127.034 545.279Z" fill="#ADF8FF"/>
<path d="M140.743 554.683L127.991 547.351V545.757L148.872 548.467V549.901L140.743 554.683Z" fill="#32A5C4"/>
<path d="M140.743 553.089L127.991 545.757L136.12 540.975L148.872 548.467L140.743 553.089Z" fill="#ADF8FF"/>
<path d="M154.29 562.653L141.539 555.161V553.727L162.579 556.277V557.871L154.29 562.653Z" fill="#32A5C4"/>
<path d="M154.29 561.059L141.539 553.727L149.827 548.945L162.579 556.277L154.29 561.059Z" fill="#ADF8FF"/>
<path d="M167.998 570.463L155.247 563.131V561.537L176.127 564.247V565.681L167.998 570.463Z" fill="#32A5C4"/>
<path d="M167.998 568.869L155.247 561.537L163.376 556.755L176.127 564.247L167.998 568.869Z" fill="#ADF8FF"/>
<path d="M181.547 578.433L168.796 570.941V569.507L189.836 572.057V573.651L181.547 578.433Z" fill="#32A5C4"/>
<path d="M181.548 576.839L168.797 569.507L177.085 564.725L189.837 572.057L181.548 576.839Z" fill="#ADF8FF"/>
<path d="M200.035 588.952L182.502 578.911V577.317L208.164 582.577V584.171L200.035 588.952Z" fill="#32A5C4"/>
<path d="M200.035 587.359L182.502 577.317L190.631 572.535L208.164 582.577L200.035 587.359Z" fill="#ADF8FF"/>
<path d="M28.3712 502.084L12.9102 493.158V491.564L36.5001 495.868V497.462L28.3712 502.084Z" fill="#32A5C4"/>
<path d="M28.3721 500.649L12.9111 491.564L21.0401 486.782L36.5011 495.868L28.3721 500.649Z" fill="#ADF8FF"/>
<path d="M41.9193 510.054L29.168 502.722V501.128L50.2077 503.678V505.272L41.9193 510.054Z" fill="#32A5C4"/>
<path d="M41.9193 508.46L29.168 501.128L37.4563 496.346L50.2077 503.678L41.9193 508.46Z" fill="#ADF8FF"/>
<path d="M55.6263 517.864L42.875 510.532V508.938L63.7553 511.647V513.241L55.6263 517.864Z" fill="#32A5C4"/>
<path d="M55.6273 516.429L42.876 508.938L51.1643 504.315L63.7563 511.647L55.6273 516.429Z" fill="#ADF8FF"/>
<path d="M137.235 565.203L56.583 518.501V516.907L145.364 558.827V560.421L137.235 565.203Z" fill="#32A5C4"/>
<path d="M137.235 563.609L56.583 516.907L64.712 512.126L145.364 558.827L137.235 563.609Z" fill="#ADF8FF"/>
<path d="M151.103 573.173L138.352 565.681V564.247L159.232 566.797V568.391L151.103 573.173Z" fill="#32A5C4"/>
<path d="M151.104 571.579L138.353 564.247L146.482 559.465L159.233 566.797L151.104 571.579Z" fill="#ADF8FF"/>
<path d="M164.651 580.983L151.899 573.651V572.057L172.939 574.767V576.201L164.651 580.983Z" fill="#32A5C4"/>
<path d="M164.651 579.389L151.899 572.057L160.188 567.275L172.939 574.767L164.651 579.389Z" fill="#ADF8FF"/>
<path d="M178.359 588.952L165.607 581.461V580.026L186.488 582.577V584.171L178.359 588.952Z" fill="#32A5C4"/>
<path d="M178.359 587.359L165.607 580.026L173.896 575.245L186.488 582.577L178.359 587.359Z" fill="#ADF8FF"/>
<path d="M189.356 595.169L179.314 589.431V587.837L197.485 588.952V590.387L189.356 595.169Z" fill="#32A5C4"/>
<path d="M189.356 593.575L179.314 587.837L187.443 583.055L197.485 588.952L189.356 593.575Z" fill="#ADF8FF"/>
<path d="M339.664 430.358V526.79L421.591 555.161L441.994 539.382L339.664 430.358Z" fill="#D6EAF2"/>
<path d="M339.663 430.358L375.207 409.796L412.824 437.53L377.28 457.932L339.663 430.358Z" fill="#97DFFF"/>
<path d="M377.279 468.293L412.824 447.731V437.53L377.279 457.932V468.293Z" fill="#55C3FE"/>
<path d="M377.279 468.293L412.824 447.731L421.59 452.832L386.205 473.393L377.279 468.293Z" fill="#97DFFF"/>
<path d="M386.205 483.594L421.59 463.033V452.832L386.205 473.393V483.594Z" fill="#55C3FE"/>
<path d="M386.205 483.594L421.59 463.033L430.516 468.133L394.972 488.695L386.205 483.594Z" fill="#97DFFF"/>
<path d="M394.972 498.896L430.516 478.335V468.133L394.972 488.695V498.896Z" fill="#55C3FE"/>
<path d="M394.972 498.896L430.516 478.335L439.283 483.594L403.898 503.997L394.972 498.896Z" fill="#97DFFF"/>
<path d="M403.897 514.198L439.282 493.796V483.594L403.897 503.997V514.198Z" fill="#55C3FE"/>
<path d="M403.897 514.357L439.282 493.796L448.208 498.896L412.664 519.458L403.897 514.357Z" fill="#97DFFF"/>
<path d="M412.664 529.659L448.208 509.097V498.896L412.664 519.458V529.659Z" fill="#55C3FE"/>
<path d="M412.664 529.659L448.208 509.097L456.975 514.198L421.59 534.759L412.664 529.659Z" fill="#97DFFF"/>
<path d="M421.59 544.96L456.975 524.399V514.198L421.59 534.759V544.96Z" fill="#55C3FE"/>
<path d="M421.59 544.96L456.975 524.399L465.901 529.499L430.356 550.061L421.59 544.96Z" fill="#97DFFF"/>
<path d="M430.356 560.262L465.901 539.86V529.499L430.356 550.061V560.262Z" fill="#55C3FE"/>
<path d="M412.664 529.499V519.298L403.898 514.198V503.997L394.972 498.896V488.695L386.205 483.594V473.393L377.28 468.293V457.932L339.663 430.358L421.59 555.161L430.516 560.262V550.061L421.59 544.96V534.759L412.664 529.499Z" fill="#35AFE5"/>
<path d="M194.937 346.996V390.51C194.937 399.436 200.834 408.362 212.629 415.215C236.219 428.923 274.632 428.923 298.222 415.215C310.017 408.362 315.915 399.436 315.915 390.51V346.996H194.937Z" fill="#0A253F"/>
<path d="M253.115 403.58L149.351 343.649V340.78H356.879V343.649L253.115 403.58Z" fill="#0B2D4F"/>
<path d="M253.115 400.711L149.351 340.78L253.115 280.848L356.879 340.78L253.115 400.711Z" fill="#164072"/>
<path d="M310.495 406.608H306.829V369.789L252.317 342.374L253.911 339.186L310.495 367.557V406.608Z" fill="#FFD629"/>
<path d="M254.549 345.083C257.806 345.083 260.446 343.442 260.446 341.417C260.446 339.392 257.806 337.751 254.549 337.751C251.292 337.751 248.651 339.392 248.651 341.417C248.651 343.442 251.292 345.083 254.549 345.083Z" fill="#FFD629"/>
<path d="M313.046 423.185V404.855C313.046 402.624 311.133 400.711 308.902 400.711C306.671 400.711 304.758 402.624 304.758 404.855V423.185H313.046Z" fill="#FFF42C"/>
<path d="M46.2236 624.497C46.2236 624.497 64.5537 624.019 87.0279 603.298C109.502 582.417 127.513 572.694 127.513 572.694V566.319L190.633 529.18L206.572 518.661L206.094 420.316L181.866 442.471L180.113 503.359L103.923 553.089L46.2236 624.497Z" fill="#D6EAF2"/>
<path d="M78.899 602.341C74.9142 608.079 52.2805 628.8 45.5861 624.178C38.8916 619.556 50.6866 591.184 54.8308 585.446L179.953 407.246C183.938 401.508 192.705 400.551 199.399 405.333C206.094 409.956 208.166 418.563 204.181 424.301L78.899 602.341Z" fill="#1D6BAA"/>
<path d="M199.399 405.174C197.965 404.217 196.53 403.58 195.096 402.942C197.965 407.565 198.284 413.143 195.414 417.288L70.292 595.487C67.1041 599.95 53.0777 613.18 43.6735 617.005C43.5142 620.353 43.9923 622.903 45.5862 624.178C52.2807 628.8 74.9143 608.239 78.8991 602.341L204.022 424.141C208.166 418.403 206.094 409.956 199.399 405.174Z" fill="#155A93"/>
<path d="M59.1338 579.07L54.8302 585.286C50.8454 591.025 39.0504 619.396 45.5855 624.019C52.2799 628.641 74.9136 608.079 78.8983 602.182L83.2019 595.966L59.1338 579.07Z" fill="#227CC6"/>
<path d="M76.0305 590.865L72.8426 595.328C68.8578 601.066 50.8466 626.728 44.3115 622.106C44.6303 622.903 45.1085 623.54 45.7461 624.019C52.4405 628.641 75.0741 608.079 79.0589 602.182L83.3625 595.966L76.0305 590.865Z" fill="#1D76B2"/>
<path d="M147.598 509.416L128.79 496.346L118.907 489.333L173.419 411.549L202.269 431.792L147.598 509.416Z" fill="#164072"/>
<path d="M189.837 423.026L135.325 500.649L118.907 489.173V489.333L128.79 496.346L147.598 509.416L202.269 431.792L189.837 423.026Z" fill="#11385E"/>
<path d="M171.025 414.9L167.817 419.464L196.509 439.624L199.716 435.059L171.025 414.9Z" fill="#0F2C49"/>
<path d="M195.893 427.329C195.893 427.329 209.919 432.749 199.878 448.847C189.836 464.786 165.29 490.767 162.899 500.809C160.508 510.851 150.944 509.735 150.625 502.562C150.307 495.23 159.233 487.42 167.362 476.581C175.491 465.743 200.515 435.139 191.111 424.141C194.299 426.214 195.893 427.329 195.893 427.329Z" fill="#227CC6"/>
<path d="M429.083 0L319.262 43.0358L366.601 48.6145L429.083 0Z" fill="#55C3FE"/>
<path d="M365.804 48.4551L373.136 69.0166L429.082 0L365.804 48.4551Z" fill="#97DFFF"/>
<path d="M381.583 53.2368L373.136 69.0166L429.082 0L381.583 53.2368Z" fill="#55C3FE"/>
<path d="M429.083 0L414.259 72.3638L381.584 53.2368L429.083 0Z" fill="#55C3FE"/>
<path d="M362.936 69.6541L360.545 67.582C363.255 64.3942 364.689 62.6409 364.689 62.6409L367.08 64.713C367.08 64.8724 365.645 66.6257 362.936 69.6541Z" fill="#35AFE5"/>
<path d="M399.436 416.809C397.842 416.809 396.089 416.809 394.495 416.809V413.622C398.799 413.622 402.943 413.622 407.087 413.622L407.246 416.809C404.696 416.809 401.987 416.809 399.436 416.809ZM381.744 416.331C378.078 416.172 374.252 415.853 370.427 415.534L368.992 415.375L369.311 412.187L370.746 412.346C374.571 412.665 378.397 412.984 382.063 413.143L381.744 416.331ZM420.157 416.012L419.838 412.825C424.142 412.506 428.286 412.028 432.43 411.549L432.909 414.737C428.764 415.375 424.461 415.694 420.157 416.012ZM356.241 413.781C351.938 413.143 347.793 412.506 343.649 411.709L344.287 408.521C348.271 409.318 352.575 409.956 356.719 410.593L356.241 413.781ZM445.5 412.825L444.863 409.637C449.007 408.84 453.151 407.883 457.295 406.927L458.092 409.956C453.948 411.071 449.804 412.028 445.5 412.825ZM331.057 408.999C326.913 408.043 322.769 406.768 318.625 405.652L319.581 402.624C323.566 403.899 327.551 405.014 331.695 405.971L331.057 408.999ZM470.366 406.608L469.409 403.58C473.394 402.305 477.538 400.87 481.364 399.276L482.479 402.305C478.654 403.739 474.51 405.174 470.366 406.608ZM306.511 401.348C302.526 399.754 298.541 398.161 294.716 396.248L296.15 393.379C299.816 395.132 303.801 396.885 307.786 398.32L306.511 401.348ZM494.274 397.045L492.84 394.176C496.665 392.263 500.331 390.191 503.838 388.119L505.432 390.829C501.925 393.06 498.1 395.132 494.274 397.045ZM283.399 390.35C279.574 388.119 276.067 385.728 272.56 383.337L274.473 380.787C277.82 383.178 281.327 385.569 284.993 387.641L283.399 390.35ZM516.27 383.656L514.358 381.106C517.705 378.555 521.052 375.846 524.081 373.136L526.153 375.527C523.124 378.396 519.777 381.106 516.27 383.656ZM262.678 375.208C259.49 372.339 256.462 369.151 253.593 365.963L255.984 363.891C258.693 367.079 261.562 369.948 264.75 372.817L262.678 375.208ZM535.397 366.442L533.007 364.37C535.876 361.182 538.426 357.834 540.657 354.487L543.367 356.241C540.976 359.747 538.266 363.094 535.397 366.442ZM245.783 355.603C243.392 352.096 241.16 348.271 239.248 344.446L242.117 343.011C244.029 346.677 246.101 350.343 248.492 353.85L245.783 355.603ZM549.902 345.083L547.033 343.649C548.946 339.823 550.54 335.998 551.815 332.172L554.843 333.129C553.568 337.113 551.815 341.098 549.902 345.083ZM233.988 332.651C232.553 328.666 231.278 324.522 230.322 320.218L233.35 319.421C234.306 323.565 235.582 327.55 236.857 331.375L233.988 332.651ZM557.872 320.537L554.684 320.059C555.321 316.233 555.64 312.408 555.64 308.742V307.626H558.828V308.742C558.828 312.567 558.509 316.552 557.872 320.537ZM228.09 307.626C227.612 303.482 227.293 299.178 227.134 294.715H230.322C230.481 299.019 230.64 303.163 231.278 307.307L228.09 307.626ZM554.365 295.193C553.568 291.209 552.452 287.064 551.018 283.239L554.046 282.123C555.64 286.268 556.756 290.412 557.553 294.556L554.365 295.193ZM230.64 282.123L227.453 281.964C227.771 277.82 228.25 273.516 228.887 269.213L232.075 269.691C231.437 273.676 230.959 277.979 230.64 282.123ZM545.598 271.922C543.526 268.416 541.135 264.909 538.585 261.562L541.135 259.649C543.845 262.996 546.395 266.662 548.468 270.328L545.598 271.922ZM234.625 257.258L231.597 256.461C232.553 252.317 233.828 248.173 235.103 244.029L238.132 244.985C236.857 249.129 235.741 253.114 234.625 257.258ZM242.595 233.349L239.726 232.074C241.479 228.09 243.232 224.105 245.304 220.439L248.173 221.873C246.101 225.539 244.348 229.365 242.595 233.349ZM254.549 211.035L251.84 209.281C254.071 205.934 256.462 202.268 258.853 198.602L261.562 200.355C259.012 204.181 256.621 207.687 254.549 211.035ZM268.735 189.995L266.185 188.242C268.576 184.735 271.126 181.388 273.676 177.881L276.226 179.794C273.676 183.141 271.126 186.648 268.735 189.995ZM283.718 169.433L281.168 167.521C283.718 164.173 286.268 160.667 288.818 157.32L291.369 159.232C288.659 162.58 286.109 165.927 283.718 169.433ZM299.019 149.031L296.469 147.119C299.019 143.771 301.729 140.424 304.279 137.077L306.83 138.99C304.279 142.337 301.57 145.684 299.019 149.031ZM314.64 128.948L312.09 127.035C314.799 123.688 317.35 120.341 320.059 116.994L322.609 118.906C319.9 122.253 317.349 125.601 314.64 128.948ZM330.579 109.024L328.029 106.952C330.738 103.445 333.448 100.257 335.998 97.0696L338.389 99.1417C335.998 102.329 333.289 105.517 330.579 109.024ZM346.678 89.2594L344.287 87.1873C347.315 83.5213 350.025 80.3334 352.416 77.305L354.807 79.3771C352.416 82.4055 349.547 85.5934 346.678 89.2594Z" fill="#35AFE5"/>
<path d="M529.819 252.317C528.384 250.882 526.79 249.448 525.196 248.173L527.268 245.782C528.862 247.216 530.616 248.651 532.05 250.085L529.819 252.317Z" fill="#35AFE5"/>
<path d="M36.4999 319.899L33.6309 318.624C35.2248 314.958 37.6157 310.655 37.775 310.655V317.19C37.4563 317.987 37.6157 317.349 36.4999 319.899Z" fill="#1D6BAA"/>
<path d="M89.099 424.62C87.1863 424.62 85.1142 424.62 83.0421 424.46L83.2015 421.272C87.6645 421.591 91.9681 421.432 95.7935 421.272L95.9529 424.46C93.8808 424.46 91.4899 424.62 89.099 424.62ZM69.972 422.866C65.3497 422.069 61.2055 421.113 57.2207 419.678L58.177 416.65C62.0024 417.925 65.9872 418.882 70.4502 419.678L69.972 422.866ZM109.023 422.388L108.385 419.2C112.53 418.244 116.514 416.809 120.18 415.056L121.615 417.925C117.63 419.838 113.486 421.272 109.023 422.388ZM45.2663 414.419C41.2815 412.028 37.7749 409.318 34.9058 406.13L37.2967 403.899C40.0064 406.768 43.3536 409.477 47.0196 411.709L45.2663 414.419ZM132.772 410.912L130.86 408.362C134.047 405.811 137.076 402.783 139.626 399.436L142.176 401.348C139.307 405.014 136.12 408.202 132.772 410.912ZM27.4144 394.973C25.5017 391.147 24.2266 386.844 23.2703 382.381L26.4581 381.743C27.255 386.047 28.5302 390.032 30.2835 393.538L27.4144 394.973ZM149.19 390.51L146.321 389.075C148.233 385.409 149.827 381.584 151.102 377.44L154.131 378.396C152.696 382.54 151.102 386.684 149.19 390.51ZM21.9951 369.311V368.992C21.9951 365.007 22.3139 360.704 22.9515 356.241L26.1393 356.719C25.5017 361.022 25.3423 365.167 25.3423 368.992V369.311H21.9951ZM157.159 365.645L153.971 365.007C154.768 361.022 155.247 356.719 155.565 352.415L158.753 352.575C158.434 357.038 157.956 361.5 157.159 365.645ZM28.5302 344.127L25.5017 343.33C26.4581 339.186 27.7332 335.041 29.1677 330.738L32.1962 331.694C30.6023 335.998 29.4865 340.142 28.5302 344.127ZM156.044 339.664C156.044 335.52 155.725 331.216 155.406 326.912L158.594 326.594C159.072 331.057 159.231 335.36 159.231 339.664H156.044ZM153.653 314.161C153.015 310.017 152.218 305.873 151.262 301.569L154.45 300.932C155.406 305.235 156.203 309.539 156.841 313.683L153.653 314.161ZM148.393 289.137C147.277 285.152 146.002 281.008 144.727 276.863L147.755 275.907C149.03 280.051 150.305 284.195 151.421 288.34L148.393 289.137ZM140.583 264.59C139.307 260.446 138.032 256.302 136.917 252.158L139.945 251.361C141.061 255.505 142.176 259.649 143.452 263.634L140.583 264.59ZM134.047 239.566C133.251 235.262 132.454 230.959 131.816 226.814L135.004 226.336C135.641 230.48 136.438 234.784 137.235 238.928L134.047 239.566ZM130.222 213.904C129.903 209.6 129.585 205.137 129.425 200.993L132.613 200.834C132.772 204.978 133.091 209.281 133.41 213.585L130.222 213.904ZM132.613 187.923L129.425 187.764C129.585 183.46 129.744 178.997 130.222 174.853L133.41 175.172C132.932 179.316 132.772 183.619 132.613 187.923ZM135.004 162.58L131.816 162.101C132.613 157.798 133.41 153.494 134.526 149.35L137.554 150.147C136.598 153.972 135.641 158.276 135.004 162.58ZM141.38 137.874L138.351 136.758C139.945 132.455 141.698 128.47 143.452 124.804L146.321 126.238C144.567 129.904 142.814 133.73 141.38 137.874ZM152.856 115.4L150.305 113.487C152.856 109.821 155.884 106.474 158.913 103.445L161.144 105.677C158.116 108.546 155.406 111.734 152.856 115.4ZM231.117 100.098C227.132 98.1853 223.147 96.5914 219.322 95.3163L220.278 92.2879C224.263 93.563 228.248 95.3163 232.392 97.229L231.117 100.098ZM170.867 98.1853L169.273 95.4757C173.098 93.2442 177.243 91.3315 181.387 90.2158L182.343 93.2442C178.358 94.3599 174.533 95.9539 170.867 98.1853ZM207.049 92.1285C202.745 91.3315 198.601 91.1721 194.457 91.3315L194.298 88.1437C198.601 87.9843 202.905 88.3031 207.527 89.1L207.049 92.1285Z" fill="#1D6BAA"/>
<path d="M247.853 109.821C246.099 108.705 244.346 107.43 242.593 106.474L244.187 103.764C245.94 104.88 247.853 105.996 249.606 107.271L247.853 109.821Z" fill="#1D6BAA"/>
<path d="M529.181 458.251L520.414 463.033L514.198 459.686L455.063 491.723C446.616 496.346 446.616 503.678 455.063 508.3L455.86 508.778C464.308 513.401 478.016 513.401 486.464 508.778L529.34 485.507V458.251H529.181Z" fill="#C4DDE8"/>
<path d="M539.062 474.35L565.999 458.729V451.557L517.703 462.077L539.062 474.35Z" fill="#AAAAAA"/>
<path d="M539.063 467.177L566 451.557L544.641 439.124L517.704 454.745L539.063 467.177Z" fill="#FCFCFC"/>
<path d="M556.436 454.107L560.421 451.716L554.523 448.369L550.379 450.6L556.436 454.107Z" fill="#AAAAAA"/>
<path d="M554.523 448.847L551.017 450.919L550.379 450.6L554.523 448.369L560.421 451.716L559.942 452.035L554.523 448.847Z" fill="#4F4F4F"/>
<path d="M546.075 448.21L550.06 445.819L544.163 442.312L540.019 444.703L546.075 448.21Z" fill="#AAAAAA"/>
<path d="M544.163 442.95L540.656 445.022L540.019 444.703L544.163 442.312L550.06 445.819L549.582 446.137L544.163 442.95Z" fill="#4F4F4F"/>
<path d="M461.12 485.985L466.221 490.767C466.539 490.608 466.858 490.448 467.177 490.289L552.133 462.395V475.147L496.505 507.184C488.536 511.807 475.784 511.807 467.815 507.184L467.177 506.706C463.033 504.315 461.12 501.287 461.28 498.099V485.985H461.12Z" fill="#EA4266"/>
<path d="M467.018 477.378L522.645 445.34L552.133 462.395L496.505 494.433C488.535 499.055 475.784 499.055 467.815 494.433L467.177 493.955C459.207 489.333 459.207 481.841 467.018 477.378Z" fill="#FE7386"/>
<path d="M472.277 490.13C477.058 492.999 485.028 492.999 489.81 490.13C494.592 487.261 494.592 482.798 489.81 479.928C485.028 477.059 477.058 477.059 472.277 479.928C467.495 482.798 467.495 487.42 472.277 490.13Z" fill="#FFB6C2"/>
<path d="M46.8617 95.3162C46.8617 95.3162 46.7024 106.792 52.5999 109.183C57.3816 108.227 51.9623 95.9538 51.9623 95.9538L46.8617 95.3162Z" fill="#112F5B"/>
<path d="M119.863 187.285C120.66 186.807 121.298 186.01 121.776 185.213L117.791 187.445C118.907 187.445 119.863 187.445 119.863 187.285Z" fill="#E2E2E2"/>
<path d="M135.004 295.99C134.845 295.672 134.845 295.512 134.686 295.193C132.932 292.643 125.76 287.064 123.688 285.47C123.847 285.311 123.847 285.152 123.847 285.152C123.847 285.152 125.282 246.579 121.297 229.843C119.862 223.786 114.284 217.251 107.908 211.513L107.43 200.196L108.386 193.023L55.3086 222.83C65.1909 227.293 76.8265 232.552 76.8265 232.552C76.8265 232.552 84.1585 305.076 84.4773 305.394C84.3179 305.554 84.1585 305.713 84.1585 306.032C83.9991 306.988 83.9991 307.626 83.9991 308.263V308.423C83.9991 308.742 83.9991 308.901 84.1585 309.06C84.1585 309.22 84.3179 309.379 84.4773 309.698C84.4773 309.698 84.4773 309.698 84.6367 309.857C84.7961 310.017 84.9555 310.176 85.2742 310.336C86.7088 311.133 88.3027 312.248 95.9535 316.233C96.4317 316.552 96.9098 316.711 97.2286 316.871C97.388 316.871 97.5474 317.03 97.7068 317.03C98.0256 317.189 98.3444 317.189 98.5037 317.349C98.6631 317.349 98.8225 317.508 98.9819 317.508C99.3007 317.508 99.4601 317.668 99.7789 317.668C99.9383 317.668 100.098 317.668 100.257 317.827C100.416 317.827 100.735 317.986 100.895 317.986C101.054 317.986 101.213 317.986 101.373 317.986C101.532 317.986 101.692 317.986 102.01 317.986C102.17 317.986 102.329 317.986 102.489 317.986C102.648 317.986 102.807 317.986 102.967 317.986C103.126 317.986 103.286 317.986 103.286 317.986C103.445 317.986 103.604 317.986 103.764 317.986C103.923 317.986 104.082 317.986 104.082 317.986C104.242 317.986 104.242 317.986 104.401 317.827C104.561 317.827 104.72 317.827 104.72 317.668C104.72 317.668 104.879 317.668 104.879 317.508C105.039 317.508 105.198 317.349 105.198 317.349C106.155 316.711 106.633 315.755 106.314 314.799C106.155 314.48 106.155 314.32 105.995 314.002C104.401 311.611 97.8662 306.51 95.4753 304.598C95.6347 304.438 95.7941 304.279 95.7941 304.279C95.7941 304.279 95.7941 267.3 93.4032 250.245C92.6063 243.869 98.8225 249.767 94.0408 243.869C101.532 246.898 106.633 231.755 106.633 231.755L113.008 288.34C113.008 288.34 113.168 288.34 113.327 288.499C113.327 288.818 113.327 289.137 113.327 289.455V289.615C113.327 289.933 113.327 290.093 113.487 290.252C113.487 290.412 113.646 290.571 113.805 290.89C113.805 290.89 113.805 291.049 113.965 291.049C114.124 291.209 114.284 291.368 114.602 291.527C116.037 292.324 117.631 293.44 125.282 297.425C125.76 297.744 126.238 297.903 126.557 298.062C126.716 298.062 126.875 298.222 127.035 298.222C127.354 298.381 127.672 298.381 127.832 298.541C127.991 298.541 128.151 298.7 128.31 298.7C128.629 298.7 128.788 298.859 129.107 298.859C129.266 298.859 129.426 298.859 129.585 299.019C129.745 299.019 130.063 299.178 130.223 299.178C130.382 299.178 130.541 299.178 130.701 299.178C130.86 299.178 131.02 299.178 131.338 299.178C131.498 299.178 131.657 299.178 131.817 299.178C131.976 299.178 132.135 299.178 132.295 299.178C132.454 299.178 132.614 299.178 132.614 299.178C132.773 299.178 132.932 299.178 133.092 299.178C133.251 299.178 133.411 299.178 133.411 299.178C133.57 299.178 133.57 299.178 133.729 299.019C133.889 299.019 134.048 299.019 134.048 298.859C134.048 298.859 134.207 298.859 134.207 298.7C134.367 298.7 134.526 298.541 134.526 298.541C134.845 297.903 135.323 296.947 135.004 295.99Z" fill="#E2E2E2"/>
<path d="M122.573 201.63C122.573 201.63 113.487 202.427 111.575 209.919C109.981 216.294 107.43 212.469 108.068 213.585C108.546 214.7 113.169 223.786 117.632 219.801C122.094 215.816 128.47 211.672 125.92 203.224C124.007 201.79 122.573 201.63 122.573 201.63Z" fill="#0B223D"/>
<path d="M97.8669 217.41C97.8669 217.41 88.7816 218.207 86.8689 225.699C85.275 232.074 85.275 232.393 85.7532 233.668C86.2313 234.784 88.3034 239.725 92.7664 235.74C97.2294 231.755 105.996 230.48 103.605 222.192C101.692 220.279 97.8669 217.41 97.8669 217.41Z" fill="#112F5B"/>
<path d="M82.0868 109.343C82.0868 109.343 81.9274 107.749 77.6238 117.472C73.3202 127.195 83.6807 158.117 86.2309 161.464C88.7812 164.811 119.863 174.374 126.716 163.855C122.413 161.623 126.557 158.435 125.76 153.494C113.009 157.957 94.6787 150.306 90.6939 147.119C84.1588 141.699 93.8817 122.732 82.0868 109.343Z" fill="url(#paint3_linear)"/>
<path d="M130.541 266.822C130.541 266.822 141.22 273.994 143.292 276.863C145.364 279.732 140.901 282.92 133.25 278.935C125.599 274.951 124.006 273.835 122.571 273.038C121.136 272.241 121.136 268.097 122.571 265.706C123.687 263.793 130.541 266.822 130.541 266.822Z" fill="#FE7386"/>
<path d="M122.571 271.763C124.006 272.56 125.6 273.675 133.251 277.66C138.989 280.689 142.814 279.573 143.611 277.66C144.408 280.37 140.264 282.601 133.251 278.935C125.6 274.951 124.006 273.835 122.571 273.038C121.456 272.4 121.296 271.603 121.456 270.169C121.615 270.806 121.934 271.285 122.571 271.763Z" fill="#4C4C4C"/>
<path d="M50.5273 175.65C50.5273 175.65 50.8461 197.008 69.8137 201.79C88.7814 206.412 113.487 213.744 113.487 213.744L122.891 267.937C122.891 267.937 126.079 271.125 128.629 270.169C130.861 269.213 130.383 266.981 130.383 266.981C130.383 266.981 131.658 226.814 128.151 210.078C125.601 197.646 81.6087 178.997 81.6087 178.997L50.5273 175.65Z" fill="url(#paint4_linear)"/>
<path d="M125.76 203.384C115.559 189.038 91.6504 175.331 91.6504 175.331L50.5273 175.809C50.5273 175.809 50.8461 197.167 69.8137 201.949C85.7529 205.934 105.677 215.816 110.459 218.048C110.618 208.962 117.312 199.558 125.76 203.384Z" fill="#112F5B"/>
<path d="M102.807 285.471C102.807 285.471 112.211 292.643 114.284 295.512C116.356 298.381 111.893 301.569 104.242 297.584C96.5911 293.6 94.9971 292.484 93.5626 291.687C92.1281 290.89 92.1281 286.427 93.722 283.558C94.8377 281.645 102.807 285.471 102.807 285.471Z" fill="#FE7386"/>
<path d="M93.5626 290.412C94.9971 291.209 96.5911 292.324 104.242 296.309C109.98 299.338 113.805 298.222 114.602 296.309C115.399 299.019 111.255 301.25 104.242 297.584C96.5911 293.599 94.9971 292.484 93.5626 291.687C92.4469 291.049 92.2875 290.252 92.4469 288.818C92.6063 289.455 92.9251 289.933 93.5626 290.412Z" fill="#4C4C4C"/>
<path d="M31.8782 188.401C31.8782 188.401 30.1249 209.759 48.455 216.294C66.785 222.83 89.4186 231.118 89.4186 231.118L93.8816 284.833C93.8816 284.833 95.4755 287.224 99.1415 287.224C102.967 287.224 102.808 285.311 102.808 285.311C102.808 285.311 106.792 246.42 104.401 229.365C102.011 212.31 77.783 192.386 77.783 192.386L31.8782 188.401Z" fill="url(#paint5_linear)"/>
<path d="M103.445 221.873C96.4319 207.05 77.6236 192.386 77.6236 192.386L31.8782 188.401C31.8782 188.401 30.1249 209.759 48.455 216.294C64.5535 222.033 83.2024 233.509 86.8684 235.74C89.2592 227.611 93.0846 219.482 103.445 221.873Z" fill="#164072"/>
<path d="M94.3594 177.084C94.3594 177.084 96.4315 113.168 76.8263 105.677C57.3805 98.0259 39.5287 115.878 31.8778 133.092C24.227 150.306 26.2991 180.272 31.8778 191.429C58.6557 209.919 95.1564 185.851 94.3594 177.084Z" fill="#FFA9B8"/>
<path d="M31.8779 133.092C39.5287 115.878 57.3806 98.0258 76.9858 105.517C77.6234 105.836 78.2609 106.155 78.8985 106.474C64.5532 108.227 52.2801 122.094 46.3826 135.642C38.7318 152.857 40.8039 182.822 46.3826 193.98C49.0922 195.892 51.8019 197.167 54.6709 198.283C47.0201 198.283 39.2099 196.37 32.0373 191.589C26.2992 180.272 24.2271 150.306 31.8779 133.092Z" fill="#FFC0CF"/>
<path d="M82.4056 76.986C82.4056 76.986 87.3467 84.7962 82.8837 101.692C79.3771 115.399 78.7396 123.05 73.1608 123.528C67.4227 124.166 50.3678 119.862 52.1211 105.677C50.3678 105.358 46.8612 98.8227 49.7303 93.5628C52.4399 88.3028 54.3526 94.0409 54.3526 94.0409C54.3526 94.0409 54.1932 82.8835 62.1628 78.7393C70.2918 74.5951 82.4056 76.986 82.4056 76.986Z" fill="url(#paint6_linear)"/>
<path d="M63.5968 90.6938C63.5968 90.0562 69.6536 98.6634 79.5359 95.9537C76.1887 94.9974 75.3917 92.6065 75.3917 92.6065C75.3917 92.6065 78.739 96.9101 84.3177 95.4755C81.9268 94.5192 80.8111 93.4034 80.8111 93.4034C80.8111 93.4034 84.4771 95.3161 88.1431 93.8816C85.9116 92.9253 86.2304 91.4907 86.2304 91.4907C86.2304 91.4907 88.1431 93.4034 92.1279 90.0562C90.534 89.8968 90.6933 82.5648 84.9552 77.4643C79.2171 72.2043 74.5948 71.0886 67.1034 72.3637C69.0161 70.451 70.9288 69.3353 73.6384 69.8135C70.61 68.0602 64.2343 71.0886 62.3216 73.9577C56.4241 71.7262 45.2667 75.5516 48.9327 97.0695C48.9327 96.5913 49.5703 93.0847 51.6424 92.2877C53.7145 91.6501 55.4678 95.7943 54.9896 96.7507C54.5114 97.8664 54.352 103.923 54.352 103.923L57.0617 105.358C57.0617 105.358 56.2647 100.098 58.1774 98.3446C59.7714 96.9101 63.278 98.8228 63.5968 90.6938Z" fill="#112F5B"/>
<path d="M128.948 138.83L117.312 154.45L80.0146 145.684L82.0867 193.979L116.037 193.501L127.195 179.953L128.948 138.83Z" fill="white"/>
<path d="M128.948 132.295L117.312 154.45L116.037 193.501L127.195 179.953L128.948 132.295Z" fill="#E6F7FF"/>
<path d="M128.151 156.523C128.151 156.523 125.6 161.782 124.007 162.42C122.413 163.058 123.688 171.824 128.469 168.955C133.411 166.245 131.179 156.841 128.151 156.523Z" fill="url(#paint7_linear)"/>
<path d="M96.1135 171.824C93.4038 171.665 90.3754 172.302 85.5936 172.302C80.8119 172.462 80.9712 169.752 80.8119 165.767C79.3773 166.883 78.421 169.911 76.0301 171.665C73.6392 173.418 72.5235 171.665 72.5235 171.665L72.0453 171.984C54.831 168.955 42.5578 164.652 39.8482 160.507C36.9791 156.363 44.7893 143.612 45.4269 132.136C45.4269 132.136 47.0208 117.79 37.7761 122.891C28.5314 128.151 25.5029 165.13 25.5029 169.274C25.5029 173.418 56.5843 179.316 72.6829 180.75C75.3925 182.344 78.7398 183.779 82.087 183.938C95.6353 184.097 98.8231 171.984 96.1135 171.824Z" fill="url(#paint8_linear)"/>
<path d="M47.4987 131.02C47.4987 131.02 46.7018 117.79 37.4571 123.05C32.6753 125.76 27.8935 139.946 24.2275 149.031C29.6469 153.175 35.385 155.247 41.6012 156.363C43.6733 152.857 48.6145 143.293 47.4987 131.02Z" fill="#FC88A1"/>
</g>
<defs>
<linearGradient id="paint0_linear" x1="454.259" y1="109.303" x2="419.816" y2="114.68" gradientUnits="userSpaceOnUse">
<stop stop-color="#FFE2C4"/>
<stop offset="1" stop-color="#FFB870"/>
</linearGradient>
<linearGradient id="paint1_linear" x1="431.495" y1="186.949" x2="406.673" y2="190.823" gradientUnits="userSpaceOnUse">
<stop stop-color="#FFB870"/>
<stop offset="1" stop-color="#FFE2C4"/>
</linearGradient>
<linearGradient id="paint2_linear" x1="379.471" y1="175.755" x2="371.651" y2="176.975" gradientUnits="userSpaceOnUse">
<stop stop-color="#FFB870"/>
<stop offset="1" stop-color="#FFE2C4"/>
</linearGradient>
<linearGradient id="paint3_linear" x1="76.468" y1="138.927" x2="126.696" y2="138.927" gradientUnits="userSpaceOnUse">
<stop stop-color="#FFB870"/>
<stop offset="1" stop-color="#FFE2C4"/>
</linearGradient>
<linearGradient id="paint4_linear" x1="50.5836" y1="222.958" x2="130.797" y2="222.958" gradientUnits="userSpaceOnUse">
<stop stop-color="#FFE2C4"/>
<stop offset="1" stop-color="#FFB870"/>
</linearGradient>
<linearGradient id="paint5_linear" x1="31.7968" y1="237.828" x2="105.151" y2="237.828" gradientUnits="userSpaceOnUse">
<stop stop-color="#FFE2C4"/>
<stop offset="1" stop-color="#FFB870"/>
</linearGradient>
<linearGradient id="paint6_linear" x1="48.8067" y1="96.0281" x2="83.2496" y2="101.405" gradientUnits="userSpaceOnUse">
<stop stop-color="#FFE2C4"/>
<stop offset="1" stop-color="#FFB870"/>
</linearGradient>
<linearGradient id="paint7_linear" x1="123.593" y1="162.479" x2="131.414" y2="163.7" gradientUnits="userSpaceOnUse">
<stop stop-color="#FFB870"/>
<stop offset="1" stop-color="#FFE2C4"/>
</linearGradient>
<linearGradient id="paint8_linear" x1="25.0593" y1="153.166" x2="97.0008" y2="153.166" gradientUnits="userSpaceOnUse">
<stop stop-color="#FFB870"/>
<stop offset="1" stop-color="#FFE2C4"/>
</linearGradient>
<clipPath id="clip0">
<rect width="566" height="624.815" fill="white"/>
</clipPath>
</defs>
</svg>
