<svg width="1440" height="656" viewBox="0 0 1440 656" fill="none" xmlns="http://www.w3.org/2000/svg">
<path d="M345.182 8.64847C345.182 13.4249 349.054 17.2969 353.83 17.2969C358.606 17.2969 362.479 13.4249 362.479 8.64847C362.479 3.87207 358.606 7.46014e-06 353.83 7.25136e-06C349.054 7.04258e-06 345.182 3.87207 345.182 8.64847Z" fill="url(#paint0_linear)"/>
<path d="M237.603 590.115L241.192 591.013C242.269 591.372 242.269 592.808 241.192 592.987L237.603 593.885C237.244 594.064 236.885 594.244 236.885 594.603L235.987 598.192C235.628 599.269 234.192 599.269 234.013 598.192L233.115 594.603C232.936 594.244 232.756 593.885 232.397 593.885L228.808 592.987C227.731 592.628 227.731 591.192 228.808 591.013L232.397 590.115C232.756 589.936 233.115 589.756 233.115 589.397L234.013 585.808C234.372 584.731 235.808 584.731 235.987 585.808L236.885 589.397C236.885 589.756 237.244 590.115 237.603 590.115Z" fill="#FEC800"/>
<path d="M918.34 608.743L925.196 610.453C927.252 611.136 927.252 613.871 925.196 614.213L918.34 615.922C917.654 616.264 916.968 616.606 916.968 617.29L915.254 624.127C914.569 626.179 911.826 626.179 911.484 624.127L909.77 617.29C909.427 616.606 909.084 615.922 908.398 615.922L901.542 614.213C899.485 613.529 899.485 610.794 901.542 610.453L908.398 608.743C909.084 608.401 909.77 608.059 909.77 607.376L911.484 600.538C912.169 598.487 914.912 598.487 915.254 600.538L916.968 607.376C916.968 608.059 917.654 608.743 918.34 608.743Z" fill="#FEC800"/>
<path d="M145.34 393.743L152.196 395.453C154.252 396.136 154.252 398.871 152.196 399.213L145.34 400.923C144.654 401.264 143.968 401.606 143.968 402.29L142.254 409.127C141.569 411.179 138.826 411.179 138.484 409.127L136.77 402.29C136.427 401.606 136.084 400.923 135.398 400.923L128.542 399.213C126.485 398.529 126.485 395.794 128.542 395.453L135.398 393.743C136.084 393.401 136.77 393.06 136.77 392.376L138.484 385.538C139.169 383.487 141.912 383.487 142.254 385.538L143.968 392.376C143.968 393.06 144.654 393.743 145.34 393.743Z" fill="#FEC800"/>
<path d="M1449.6 638.375L1456.46 640.085C1458.51 640.769 1458.51 643.503 1456.46 643.845L1449.6 645.555C1448.92 645.897 1448.23 646.238 1448.23 646.922L1446.52 653.76C1445.83 655.811 1443.09 655.811 1442.75 653.76L1441.03 646.922C1440.69 646.238 1440.35 645.555 1439.66 645.555L1432.8 643.845C1430.75 643.162 1430.75 640.427 1432.8 640.085L1439.66 638.375C1440.35 638.034 1441.03 637.692 1441.03 637.008L1442.75 630.171C1443.43 628.119 1446.17 628.119 1446.52 630.171L1448.23 637.008C1448.23 637.692 1448.92 638.375 1449.6 638.375Z" fill="#FEC800"/>
<path d="M-0.000637697 515.555C-0.000638052 523.674 6.59895 530.255 14.7399 530.255C22.8809 530.255 29.4805 523.674 29.4805 515.555C29.4805 507.436 22.8809 500.854 14.7399 500.854C6.59895 500.854 -0.000637342 507.436 -0.000637697 515.555Z" fill="#DB4FFF"/>
<path d="M1121 637.7C1121 645.819 1127.6 652.401 1135.74 652.401C1143.88 652.401 1150.48 645.819 1150.48 637.7C1150.48 629.582 1143.88 623 1135.74 623C1127.6 623 1121 629.582 1121 637.7Z" fill="#DB4FFF"/>
<path d="M73.0537 43.0937C73.0537 47.7881 76.8593 51.5937 81.5537 51.5937C86.2482 51.5937 90.0537 47.7881 90.0537 43.0937C90.0537 38.3993 86.2482 34.5937 81.5537 34.5937C76.8593 34.5937 73.0537 38.3993 73.0537 43.0937Z" fill="#DB4FFF"/>
<path d="M1367 397.648C1367 402.425 1370.87 406.297 1375.65 406.297C1380.42 406.297 1384.3 402.425 1384.3 397.648C1384.3 392.872 1380.42 389 1375.65 389C1370.87 389 1367 392.872 1367 397.648Z" fill="url(#paint1_linear)"/>
<path d="M1017.46 76.0937C1017.46 80.7881 1021.26 84.5937 1025.96 84.5937C1030.65 84.5937 1034.46 80.7881 1034.46 76.0937C1034.46 71.3993 1030.65 67.5937 1025.96 67.5937C1021.26 67.5937 1017.46 71.3993 1017.46 76.0937Z" fill="#DB4FFF"/>
<path d="M1383.64 79.6871L1389.67 81.3067C1391.44 81.7485 1391.44 84.2515 1389.67 84.6932L1383.64 86.3129C1383.05 86.4601 1382.61 86.9018 1382.31 87.638L1380.69 93.6748C1380.25 95.4417 1377.75 95.4417 1377.31 93.6748L1375.69 87.638C1375.54 87.0491 1375.1 86.6073 1374.36 86.3129L1368.33 84.6932C1366.56 84.2515 1366.56 81.7484 1368.33 81.3067L1374.36 79.6871C1374.95 79.5399 1375.39 79.0981 1375.69 78.3619L1377.31 72.3251C1377.75 70.5583 1380.25 70.5583 1380.69 72.3251L1382.31 78.3619C1382.46 79.0981 1383.05 79.5399 1383.64 79.6871Z" fill="#FEC800"/>
<defs>
<linearGradient id="paint0_linear" x1="353.762" y1="0.101777" x2="353.762" y2="17.2098" gradientUnits="userSpaceOnUse">
<stop stop-color="#1AE5FF"/>
<stop offset="1" stop-color="#EAEEEE"/>
</linearGradient>
<linearGradient id="paint1_linear" x1="1375.58" y1="389.102" x2="1375.58" y2="406.21" gradientUnits="userSpaceOnUse">
<stop stop-color="#1AE5FF"/>
<stop offset="1" stop-color="#EAEEEE"/>
</linearGradient>
</defs>
</svg>
